<svg xmlns="http://www.w3.org/2000/svg" viewBox="0 0 48.99 33.24"><defs><style>.cls-1{fill:#fff;}</style></defs><title>device</title><g id="Layer_2" data-name="Layer 2"><g id="Layer_1-2" data-name="Layer 1"><path class="cls-1" d="M6.5,33.24A24.49,24.49,0,0,1,6.5,0l3.77,2.62a20,20,0,0,0,0,28Zm32.23-2.62a20,20,0,0,0,0-28L42.5,0a24.5,24.5,0,0,1,0,33.23ZM15.35,27.13c-.24-.21-.47-.43-.7-.66a13.93,13.93,0,0,1,0-19.7h0c.23-.23.46-.45.7-.66l3.91,2.7a9.4,9.4,0,0,0,0,15.62Zm14.39-2.7a9.41,9.41,0,0,0,0-15.62l3.91-2.7c.24.21.47.43.7.66a13.93,13.93,0,0,1,0,19.7h0c-.23.23-.46.45-.7.66Z"/><path class="cls-1" d="M28.41,16.62a3.91,3.91,0,1,1-3.91-3.91h0a3.91,3.91,0,0,1,3.91,3.91Z"/></g></g></svg>