<svg xmlns="http://www.w3.org/2000/svg" viewBox="0 0 166.53 146.63"><defs><style>.cls-1{fill:none;}.cls-1,.cls-3,.cls-4,.cls-5{stroke:#fff;stroke-miterlimit:10;}.cls-2,.cls-3,.cls-4{fill:#fff;}.cls-3{stroke-width:0.75px;}.cls-4{stroke-width:0.5px;}.cls-5{fill:#14477e;}</style></defs><title>logo</title><g id="Layer_2" data-name="Layer 2"><g id="Layer_1-2" data-name="Layer 1"><circle class="cls-1" cx="81.1" cy="74.03" r="31.7"/><path class="cls-2" d="M70.87,43.84c1,.38,1.11.8,1.11.88.06.58-1,1.3-2.62,1.72,1.12-.09,1.51.12,1.64.36s-.13.66-.08,1.34a2.49,2.49,0,0,0,.38,1.11,1.7,1.7,0,0,1,1.37.39,1.39,1.39,0,0,1,.5,1.24c-.21.77-1.48.61-1.84,1.57-.13.33-.07.61-.33.81a1.07,1.07,0,0,1-.84.1c-1-.25-1.29-1.51-1.49-1.44a2.17,2.17,0,0,0,.78,2.53,2,2,0,0,0,1.52.1,8.59,8.59,0,0,1,3.09,3.16c.65,1.19,1.29,3.08.68,3.58s-1.46-.61-2.4-.13-.56,1.48-1.47,2c-.66.34-1-.11-2.08.13a4.51,4.51,0,0,0-1.82,1,10.84,10.84,0,0,0-2.51,2.54c-1,1.43-.86,2.07-1.67,2.45s-1.6-.19-2,.25,0,.84.13,2.16c.13,1.11.14,2.48-.1,2.53s-.84-2.92-2.1-3.06c-.49-.06-.61.37-1.75.86-1.31.55-1.81.26-2.13.68-.79,1,1.17,4.2,2,4,.58-.14.52-1.87,1-1.9.27,0,.5.43.61.64.62,1.2,0,2.11.48,2.65s1.32,0,1.75.43c.57.65-.67,2-.13,2.82a2.22,2.22,0,0,0,3,.12c.26-.37,0-.69.21-.94.49-.56,2.21.85,5,1.57a26.7,26.7,0,0,1,3.69.83c2,.76,2.41,1.45,2.5,1.87s-.15.85.1,1.12,1.08,0,2.13,0a5.72,5.72,0,0,1,2.52.64,7.36,7.36,0,0,1,3,2.6,2.07,2.07,0,0,1,0,.79c-.16,1.15-1.31,1.49-1.87,2.56a3.31,3.31,0,0,0-.2,2.34,5.11,5.11,0,0,0-3.07,2.85,4.39,4.39,0,0,0-.25,1.91,2.93,2.93,0,0,0-2.18,1.18c-.67,1.18,0,3.21,1.89,4.3a6.51,6.51,0,0,1-3.71-2.12c-.72-.88-.56-1.27-1.55-3-1.08-1.87-1.65-2-2.43-3.47a10.47,10.47,0,0,1-1.18-3.92,6.12,6.12,0,0,1-3.4-1.3,6.44,6.44,0,0,1-2.29-4.69c.64-2.06.36-3-.07-3.41s-1-.23-1.95-1c-.64-.51-.61-.81-1.49-1.52a4.51,4.51,0,0,0-1.24-.81,10.13,10.13,0,0,0-1.93-.38,4.54,4.54,0,0,1-1.82-1,3.63,3.63,0,0,1-1.54-1.72,2.69,2.69,0,0,1-.23-.94c0-.69.27-1,.07-1.39s-.44-.54-.7-.48c-.56.11-.39,1.65-1,1.85-.21.06-.55,0-1.12-.66a31.78,31.78,0,0,1,21.3-31.35Z"/><path class="cls-2" d="M75.39,42.91c-1.2,1.7-1.24,2.45-1,2.81.43.61,1.8.13,2.15.81.26.5-.41,1-.16,1.82.17.61.59.61.73,1.14.19.76-.56,1.2-.77,2-.46,1.7,1.54,4.11,2.59,3.89.62-.13,1.12-1.2,1.3-1.87s.09-1.14.4-1.29.8.38,1.22.2.22-.78.65-1.3.82-.33,1.91-.65c.92-.27,2.08-.61,2.35-1.38.13-.39-.09-.53-.49-1.82-.53-1.68-.39-2.19-.85-2.43-.61-.33-1.07.45-2,.24-1.07-.26-1-1.55-2.15-1.87a7.25,7.25,0,0,0-1.86.17c-1.11.15-1.56.29-1.79,0s-.23-.38,0-1.07Z"/><path class="cls-2" d="M100.84,49a2.72,2.72,0,0,0-2.07-.72,2.52,2.52,0,0,0-1.57.78A2.91,2.91,0,0,0,96.85,51c.22,1.3,1.44,1.91,1.22,2.59-.07.23-.31.52-1.16.7a4.11,4.11,0,0,0,1.83,1.58c.86.36,1.35.16,2.24.63.69.37,1.47,1.07,1.33,1.47s-1.31.07-2.45.67a3.81,3.81,0,0,0-1.68,2.08,1.67,1.67,0,0,1-.74-.68c-.34-.66.11-1.14-.1-1.89a2,2,0,0,0-1.69-1.4,2.06,2.06,0,0,0-1.69.9A2.19,2.19,0,0,0,93.69,59c.12.69.61,1,1.51,1.86,1.19,1.09,2.34,2.31,2.21,2.49s-.48-.28-1.09-.21a1.52,1.52,0,0,0-1.33,1c-.1.71.94,1,1,1.89,0,.65-.46.79-.42,1.47A1.61,1.61,0,0,0,96.67,69c.35,0,.69-.2,1.93-1.79,1.5-1.94,1.54-2.29,2.14-2.52a3,3,0,0,1,3.11.87c.52.55,1.06,1.57.71,2.07s-1.55.28-2.28.14c-1.43-.28-1.68-.79-2.28-.6-.86.28-.6,1.4-1.68,2.21s-1.58.13-2.45.81-.62,1.65-1.55,3.22a6.9,6.9,0,0,1-1.58,1.83,3.67,3.67,0,0,0-.41,2.17c.13,1,.63,1.17.91,2.27.34,1.37-.27,1.68.1,2.53.51,1.17,2.21,1.81,3.58,1.71,1-.07,1-.53,2.76-1,.42-.12,3.07-.87,3.61,0,.14.21.1.45,0,.87a18.18,18.18,0,0,1-1.05,3.12c-.6,1.69.38,2,0,3.82-.33,1.39-1,1.47-2.63,3.82-1,1.52-2.61,3.77-2,4.52.12.16.71.75,4-.62,1.31-1.09,11.83-10.09,11.51-25.11C112.73,58.61,102.24,50.13,100.84,49Z"/><path class="cls-2" d="M72.32,27C77.53,32.48,82.37,38.33,87,44.34,91.39,50.56,95.51,57,99.28,63.55a262.51,262.51,0,0,1,19.08,41.32,157.65,157.65,0,0,1,6.26,21.95,53.62,53.62,0,0,1,1.17,11.5,13.23,13.23,0,0,1-1.38,6,4.65,4.65,0,0,1-2.74,2.2,5.69,5.69,0,0,1-1.73.13,6.78,6.78,0,0,1-1.59-.27,20.6,20.6,0,0,1-5.35-2.67c-.79-.56-1.58-1.12-2.35-1.7l-2.24-1.81c-2.92-2.48-5.66-5.13-8.33-7.84q-7.6-8.52-14.46-17.58c5.2,5.51,10.39,11,15.89,16.18,2.66,2.65,5.33,5.31,8.19,7.71l2.17,1.75c.74.56,1.49,1.1,2.25,1.63a18.63,18.63,0,0,0,4.75,2.4,4.71,4.71,0,0,0,2.27.14,2.66,2.66,0,0,0,1.55-1.29,11.43,11.43,0,0,0,1.1-5,51.3,51.3,0,0,0-1.14-11,152.58,152.58,0,0,0-6.18-21.66,260.18,260.18,0,0,0-18.93-41q-5.61-9.81-12.17-19c-2.05-3.16-4.16-6.3-6.34-9.39S74.61,30,72.32,27Z"/><path class="cls-2" d="M48.34,45.91c-1.43-2.65-2.8-5.33-4.06-8-1-2.81-2-5.65-2.92-8.49A121,121,0,0,1,36.84,11.9l-.28-2.28c-.05-.77-.11-1.54-.13-2.31a11.31,11.31,0,0,1,.83-4.83,4.06,4.06,0,0,1,2-2A4.89,4.89,0,0,1,42,.05,13.65,13.65,0,0,1,46.5,1.64,47.31,47.31,0,0,1,54,6.86a76.8,76.8,0,0,1,6,6.77C57.59,11.84,55.2,10,52.73,8.4a46,46,0,0,0-7.16-5A12.16,12.16,0,0,0,41.72,2a2.29,2.29,0,0,0-2.67,1.33,9.76,9.76,0,0,0-.62,3.93c0,.71.08,1.43.12,2.14l.27,2.17a118.44,118.44,0,0,0,4.44,17.15c.94,2.82,1.88,5.64,2.91,8.43C46.88,40.08,47.69,43,48.34,45.91Z"/><path class="cls-2" d="M152.91,81.11a70.28,70.28,0,0,0,6.74-3.92,18.06,18.06,0,0,0,3.11-2,4.42,4.42,0,0,0,1.75-2.55,2,2,0,0,0,0-.64,4.81,4.81,0,0,0-.24-.66l-.45-.64-.6-.61a15.44,15.44,0,0,0-3-2,46,46,0,0,0-7.08-2.93A153.45,153.45,0,0,0,138,61q-3.81-.87-7.65-1.62c-2.5-.82-5-1.56-7.51-2.44q4,.14,7.9.48c2.57.51,5.14,1,7.7,1.62,5.11,1.17,10.22,2.45,15.23,4.13a48.25,48.25,0,0,1,7.39,3.07,16.67,16.67,0,0,1,3.45,2.34l.77.79.67,1a7.94,7.94,0,0,1,.44,1.18,4.12,4.12,0,0,1,.06,1.31,4.75,4.75,0,0,1-.93,2.25,9.23,9.23,0,0,1-1.51,1.6A20.94,20.94,0,0,1,160.6,79,40,40,0,0,1,152.91,81.11Z"/><path class="cls-2" d="M39.36,55.89c-7.31,2.29-14.6,4.6-21.63,7.49A69.18,69.18,0,0,0,7.42,68a17.38,17.38,0,0,0-4.28,3.25,4.79,4.79,0,0,0-1.1,2,2.81,2.81,0,0,0,.47,2,11.29,11.29,0,0,0,4,3.31,36.47,36.47,0,0,0,5.08,2.3,91.05,91.05,0,0,0,10.86,3.22A207.54,207.54,0,0,0,44.94,88a294.66,294.66,0,0,0,45.62,1.93q11.41-.45,22.79-1.78c7.61-.55,15.19-1.43,22.76-2.57-7.41,1.93-15,3.34-22.53,4.56q-11.43,1.32-22.94,1.79A296.25,296.25,0,0,1,44.7,89.94,206.46,206.46,0,0,1,22,86a91.68,91.68,0,0,1-11.11-3.29,39.45,39.45,0,0,1-5.35-2.43,13.08,13.08,0,0,1-4.71-4,4.82,4.82,0,0,1-.75-3.43,6.71,6.71,0,0,1,1.56-3,18.76,18.76,0,0,1,4.79-3.68A70.72,70.72,0,0,1,17,61.49c3.66-1.2,7.39-2.15,11.1-3.11l5.59-1.32Z"/><path class="cls-3" d="M72.11,18.9a8.8,8.8,0,0,0-7.92,2.94,11.82,11.82,0,0,0-.66-4.13,12.25,12.25,0,0,0-1.25-2.54l6.29-2.77a11.16,11.16,0,0,0,.86,2.8A11.67,11.67,0,0,0,72.11,18.9Z"/><path class="cls-2" d="M60.81,11.78,58.64,6.59A5,5,0,0,1,61.2,4a5.06,5.06,0,0,1,4,0C66,5.9,66.74,7.78,67.48,9.67Z"/><path class="cls-2" d="M60.81,11.78c-.78-1.61-1.62-3.32-2.4-5.09l0-.09,0-.1a5,5,0,0,1,2.86-2.92,5.11,5.11,0,0,1,2.08-.37,5.43,5.43,0,0,1,2.05.47l.14.06.06.14c.72,1.89,1.46,3.78,2.16,5.68l.12.3-.31.09C65.26,10.62,63,11.23,60.81,11.78Zm0,0c2.29-.85,4.44-1.66,6.58-2.4l-.18.4C66.42,7.91,65.67,6,64.9,4.16l.19.2a4.72,4.72,0,0,0-3.58-.16,4.89,4.89,0,0,0-2.63,2.49V6.5C59.53,8.19,60.14,9.94,60.81,11.78Z"/><circle class="cls-2" cx="68.76" cy="30.61" r="0.48"/><circle class="cls-2" cx="76.42" cy="26.46" r="0.48"/><path class="cls-4" d="M59.53,15l3,6.51-14.42,7q-1.51-3.75-3-7.5Z"/><polygon class="cls-2" points="48.06 28.5 49.51 28.9 62.49 21.5 48.06 28.5"/><rect class="cls-5" x="61.67" y="17.38" width="1.37" height="1.17" transform="translate(72.46 82.07) rotate(-115.04)"/><path class="cls-2" d="M65.79,13.57l-.93.38-1.15-2.74a.68.68,0,0,1,.4-.4.7.7,0,0,1,.53,0C65,11.73,65.4,12.65,65.79,13.57Z"/><ellipse class="cls-2" cx="64.2" cy="10.79" rx="3.51" ry="1.84" transform="translate(0.09 22.1) rotate(-19.54)"/><path class="cls-2" d="M67.38,19.45A10.15,10.15,0,0,1,71,18.61,4,4,0,0,1,73,19a2.9,2.9,0,0,1,1.41,1.55,3,3,0,0,1-.11,2,5.57,5.57,0,0,1-1.08,1.6,10.42,10.42,0,0,1-3,2.21,7.47,7.47,0,0,1-3.75.78,5.13,5.13,0,0,1-2-.51A3.21,3.21,0,0,1,63,25.13,3.11,3.11,0,0,1,63,23a4.29,4.29,0,0,1,1.14-1.64A10.34,10.34,0,0,1,67.38,19.45Zm0,.09a6.32,6.32,0,0,0-2.78,2.23,3.25,3.25,0,0,0-.67,3,3,3,0,0,0,2.53,1.56A8.73,8.73,0,0,0,70,25.93,6.32,6.32,0,0,0,73,24a3,3,0,0,0,.65-3.11A3.58,3.58,0,0,0,71,19.23,6.27,6.27,0,0,0,67.42,19.54Z"/><ellipse class="cls-2" cx="68.58" cy="22.71" rx="1.91" ry="1.21" transform="translate(-3.54 26.99) rotate(-21.72)"/><path class="cls-2" d="M68.88,30.21c-.11-.61-.16-1.22-.24-1.82s-.12-1.22-.16-1.82c-.09-1.22-.13-2.43-.14-3.65l0-.78.72.33c1.23.57,2.44,1.16,3.63,1.8.6.32,1.19.65,1.78,1s1.16.69,1.72,1.09c-.66-.18-1.29-.42-1.94-.63S73,25.25,72.33,25c-1.25-.51-2.49-1.05-3.71-1.63l.7-.45c0,1.21,0,2.43-.09,3.64,0,.61-.08,1.22-.13,1.82S69,29.6,68.88,30.21Z"/><path class="cls-4" d="M70.93,11l2.62,6.65L88.62,12.2,85.33,4.82Z"/><polygon class="cls-2" points="88.61 12.2 87.9 13.52 73.55 17.68 88.61 12.2"/><rect class="cls-5" x="70.58" y="14" width="1.37" height="1.17" transform="translate(82.02 86.53) rotate(-110.06)"/><g id="Layer_2-2" data-name="Layer 2"><g id="Layer_1-2-2" data-name="Layer 1-2"><g id="Layer_2-2-2" data-name="Layer 2-2"><g id="Layer_1-2-2-2" data-name="Layer 1-2-2"><g id="_Group_" data-name=" Group "><path class="cls-2" d="M154.56,85.5l.38,2.57c.29,2-3.28,4.16-7.93,4.85s-8.7-.33-9-2.32L137.64,88a1.67,1.67,0,0,1,.13-.88c1.14,1.43,4.64,2.11,8.62,1.52s7.14-2.26,7.8-4A1.8,1.8,0,0,1,154.56,85.5Z"/><path class="cls-2" d="M153.77,80.18l.38,2.57c.29,2-3.28,4.16-7.93,4.85s-8.7-.34-9-2.31l-.39-2.58a1.69,1.69,0,0,1,.14-.89c1.14,1.44,4.63,2.11,8.62,1.52s7.14-2.25,7.8-4A1.73,1.73,0,0,1,153.77,80.18Z"/><path class="cls-2" d="M153,75l.38,2.57c.3,2-3.27,4.16-7.92,4.85s-8.7-.33-9-2.32l-.38-2.57a1.76,1.76,0,0,1,.11-.88c.39,1.46,4.2,2.06,8.63,1.4s7.91-2.34,7.86-3.85A1.8,1.8,0,0,1,153,75Z"/><path class="cls-2" d="M143.87,71.76c4.57-.68,8.45,0,8.68,1.5s-3.3,3.28-7.87,4-8.43,0-8.65-1.5S139.32,72.44,143.87,71.76Z"/></g></g></g></g></g><path class="cls-2" d="M40,120.89c-.35,3.1-.72,6.18-.9,9.25a40.47,40.47,0,0,0-.57,9,10.11,10.11,0,0,0,1,4,2.64,2.64,0,0,0,2.92,1.39,12.07,12.07,0,0,0,4-1.52c.63-.38,1.27-.78,1.9-1.19l1.84-1.33A122.54,122.54,0,0,0,63.55,128c2.1-2.26,4.2-4.53,6.23-6.86,2.29-2.1,4.5-4.28,6.83-6.37-1.72,2.61-3.48,5.18-5.33,7.7-2,2.34-4.15,4.62-6.27,6.9a125.85,125.85,0,0,1-13.67,12.82l-1.93,1.39c-.67.43-1.35.86-2,1.27a13.89,13.89,0,0,1-4.69,1.77,5.86,5.86,0,0,1-1.39,0l-.72-.12-.7-.28a4.62,4.62,0,0,1-2.07-2,11.73,11.73,0,0,1-1.29-4.89,43.38,43.38,0,0,1,.57-9.49A70.09,70.09,0,0,1,40,120.89Z"/><path class="cls-2" d="M113.89,45.91c2.32-7.26,4.68-14.49,6.53-21.84a107.58,107.58,0,0,0,2.72-11c.18-.92.33-1.84.43-2.76s.17-1.83.22-2.75A15.42,15.42,0,0,0,123.64,5a9.28,9.28,0,0,0-.28-1.21,3.91,3.91,0,0,0-.53-1c-.73-1.1-2.52-.91-4.15-.29a23.74,23.74,0,0,0-4.79,2.59,74.5,74.5,0,0,0-8.71,7.11A184,184,0,0,0,89.7,28.78a250,250,0,0,0-25.88,37.3Q58.24,76,53.55,86.35c-3.44,6.77-6.53,13.71-9.41,20.76a228.17,228.17,0,0,1,7.59-21.58Q56.47,75.09,62.08,65.1A251.62,251.62,0,0,1,88.16,27.5a186.32,186.32,0,0,1,15.65-16.76,77.18,77.18,0,0,1,9-7.31A25.86,25.86,0,0,1,118,.62,8.83,8.83,0,0,1,121.14,0a4.76,4.76,0,0,1,1.77.37,3.22,3.22,0,0,1,.81.5l.37.31a3.17,3.17,0,0,1,.29.35,5.85,5.85,0,0,1,.86,1.53,11.42,11.42,0,0,1,.38,1.56,17.33,17.33,0,0,1,.17,3c-.06,1-.09,2-.24,2.94s-.26,1.93-.44,2.87-.36,1.9-.57,2.84-.42,1.88-.67,2.8c-.48,1.86-.94,3.72-1.52,5.54-1.24,3.63-2.6,7.2-4,10.74l-2.17,5.29Z"/><path class="cls-2" d="M48.82,123.33l1-.18a.69.69,0,0,0,.54-.63v-9.24a.75.75,0,0,0-.52-.67s-4.75-1.31-6.92-1.82H40.8c-2.18.5-6.92,1.82-6.92,1.82a.75.75,0,0,0-.53.67v9.24a.7.7,0,0,0,.54.63l1,.18-2.22,3.54H34.6l.52-.84H48.58l.52.84H51Zm-1.71.35h-.2l.17,0Zm-1.74-2.77a.88.88,0,1,1-.87.87.87.87,0,0,1,.87-.87h0Zm-7.08,0a.88.88,0,1,1-.87.87.87.87,0,0,1,.87-.87h0Zm-1.51,2.77h-.19v0Zm-1.18,1.58.51-.81H47.6l.5.81Z"/><path class="cls-2" d="M41.85,110h1.52l6.81,1.81v-5.15l-2.92-1.52H36.45l-2.93,1.52v5.15L40.34,110Zm1.37-3h5.25a.47.47,0,0,1,.47.45l.14,1.46a.47.47,0,0,1-.47.47H43.49a.47.47,0,0,1-.47-.47l-.27-1.46a.47.47,0,0,1,.47-.46ZM35.1,109.3a.47.47,0,0,1-.47-.47l.14-1.46a.47.47,0,0,1,.47-.46h5.25a.47.47,0,0,1,.47.46l-.27,1.46a.47.47,0,0,1-.47.47Z"/></g></g></svg>