<svg xmlns="http://www.w3.org/2000/svg" viewBox="0 0 42.18 50"><defs><style>.cls-1{fill:#fff;}</style></defs><title>train</title><g id="Layer_2" data-name="Layer 2"><g id="Layer_1-2" data-name="Layer 1"><path class="cls-1" d="M37.09,41.87l2.28-.42A1.63,1.63,0,0,0,40.62,40V18.76a1.74,1.74,0,0,0-1.21-1.54s-10.91-3-15.9-4.17H18.66c-5,1.15-15.9,4.17-15.9,4.17a1.74,1.74,0,0,0-1.21,1.54V40a1.64,1.64,0,0,0,1.24,1.45l2.3.42L0,50H4.42l1.2-1.93H36.55L37.75,50h4.43Zm-3.93.8H32.7l.39-.08Zm-4-6.36a2,2,0,1,1-2,2,2,2,0,0,1,2-2h0Zm-16.25,0a2,2,0,1,1-2,2,2,2,0,0,1,2-2h0ZM9.43,42.67H9v-.08ZM6.73,46.3l1.16-1.87h26.4l1.16,1.87Z"/><path class="cls-1" d="M21.09,11.16h3.48l15.66,4.17V3.5L33.51,0H8.67L2,3.5V15.33l15.66-4.17Zm3.14-7H36.29a1.08,1.08,0,0,1,1.08,1l.32,3.35a1.09,1.09,0,0,1-1.08,1.07H24.84a1.09,1.09,0,0,1-1.08-1.07L23.15,5.2a1.09,1.09,0,0,1,1.08-1.07ZM5.57,9.63A1.08,1.08,0,0,1,4.49,8.55L4.81,5.2A1.09,1.09,0,0,1,5.89,4.13H18A1.09,1.09,0,0,1,19,5.2l-.62,3.35a1.09,1.09,0,0,1-1.08,1.07H5.57Z"/></g></g></svg>